<svg xmlns="http://www.w3.org/2000/svg" viewBox="0 0 55 37" width="55" height="37">
	<style>
		tspan { white-space:pre }
		.shp0 { fill: #a3bbc8 } 
		.shp1 { opacity: 0.341;fill: #a3bbc8 } 
	</style>
	<path class="shp0" d="M9.82 5.33L3.69 5.33C3.26 5.33 2.91 5.69 2.91 6.12C2.91 6.55 3.26 6.91 3.69 6.91L9.82 6.91C10.25 6.91 10.6 6.55 10.6 6.12C10.6 5.69 10.25 5.33 9.82 5.33ZM10.34 16.34L4.74 16.34C4.3 16.34 3.95 16.69 3.95 17.13C3.95 17.56 4.3 17.91 4.74 17.91L10.34 17.91C10.77 17.91 11.13 17.56 11.13 17.13C11.13 16.69 10.77 16.34 10.34 16.34ZM8.25 11.62L1.6 11.62C1.16 11.62 0.81 11.97 0.81 12.41C0.81 12.84 1.16 13.2 1.6 13.2L8.25 13.2C8.68 13.2 9.03 12.84 9.03 12.41C9.03 11.97 8.68 11.62 8.25 11.62ZM8.25 22.63L7.6 22.63C7.17 22.63 6.82 22.98 6.82 23.42C6.82 23.85 7.17 24.2 7.6 24.2L8.25 24.2C8.68 24.2 9.03 23.85 9.03 23.42C9.03 22.98 8.68 22.63 8.25 22.63ZM4.98 22.63L1.6 22.63C1.16 22.63 0.81 22.98 0.81 23.42C0.81 23.85 1.16 24.2 1.6 24.2L4.98 24.2C5.42 24.2 5.77 23.85 5.77 23.42C5.77 22.98 5.42 22.63 4.98 22.63ZM41.84 2.77L35.19 2.77L35.19 1.35C35.19 0.92 34.83 0.57 34.4 0.57L22.23 0.57C21.79 0.57 21.44 0.92 21.44 1.35C21.44 1.79 21.79 2.14 22.23 2.14L33.61 2.14L33.61 19.36C33.61 19.79 33.97 20.15 34.4 20.15C34.83 20.15 35.19 19.79 35.19 19.36L35.19 4.34L41.84 4.34C45.43 4.34 48.35 7.26 48.35 10.86L48.35 24.15L46.35 24.15C45.98 21.78 43.92 19.96 41.44 19.96C38.97 19.96 36.91 21.78 36.53 24.15L35.19 24.15L35.19 23.03C35.19 22.59 34.83 22.24 34.4 22.24C33.97 22.24 33.61 22.59 33.61 23.03L33.61 24.15L25.28 24.15C24.9 21.78 22.84 19.96 20.37 19.96C17.89 19.96 15.83 21.78 15.46 24.15L13.82 24.15L13.82 2.14L19.08 2.14C19.52 2.14 19.87 1.79 19.87 1.35C19.87 0.92 19.52 0.57 19.08 0.57L13.04 0.57C12.6 0.57 12.25 0.92 12.25 1.35L12.25 24.94C12.25 25.37 12.6 25.73 13.04 25.73L15.46 25.73C15.83 28.1 17.89 29.92 20.37 29.92C22.84 29.92 24.9 28.1 25.28 25.73L36.53 25.73C36.91 28.1 38.97 29.92 41.44 29.92C43.92 29.92 45.98 28.1 46.35 25.73L49.14 25.73C49.57 25.73 49.92 25.37 49.92 24.94L49.92 10.86C49.92 6.4 46.3 2.77 41.84 2.77ZM20.37 28.35C18.49 28.35 16.96 26.82 16.96 24.94C16.96 23.06 18.49 21.53 20.37 21.53C22.24 21.53 23.77 23.06 23.77 24.94C23.77 26.82 22.24 28.35 20.37 28.35ZM41.44 28.35C39.57 28.35 38.04 26.82 38.04 24.94C38.04 24.94 38.04 24.94 38.04 24.94C38.04 24.94 38.04 24.94 38.04 24.94C38.04 23.06 39.57 21.53 41.44 21.53C43.32 21.53 44.85 23.06 44.85 24.94C44.85 26.82 43.32 28.35 41.44 28.35ZM41.84 5.91L37.54 5.91C37.11 5.91 36.76 6.27 36.76 6.7L36.76 14.09C36.76 14.52 37.11 14.88 37.54 14.88L46 14.88C46.43 14.88 46.78 14.52 46.78 14.09L46.78 10.86C46.78 8.13 44.57 5.91 41.84 5.91ZM45.21 13.3L38.33 13.3L38.33 7.49L41.84 7.49C43.7 7.49 45.21 9 45.21 10.86L45.21 13.3ZM20.37 22.91C19.25 22.91 18.34 23.82 18.34 24.94C18.34 26.06 19.25 26.97 20.37 26.97C21.48 26.97 22.39 26.06 22.39 24.94C22.39 23.82 21.48 22.91 20.37 22.91ZM20.37 25.4C20.12 25.4 19.91 25.19 19.91 24.94C19.91 24.69 20.12 24.49 20.37 24.49C20.62 24.49 20.82 24.69 20.82 24.94C20.82 25.19 20.62 25.4 20.37 25.4ZM41.44 22.91C40.33 22.91 39.42 23.82 39.42 24.94C39.42 26.06 40.33 26.97 41.44 26.97C42.56 26.97 43.47 26.06 43.47 24.94C43.47 23.82 42.56 22.91 41.44 22.91ZM41.44 25.4C41.19 25.4 40.99 25.19 40.99 24.94C40.99 24.69 41.19 24.49 41.44 24.49C41.69 24.49 41.9 24.69 41.9 24.94C41.9 25.19 41.69 25.4 41.44 25.4ZM46 17.03C45.56 17.03 45.21 17.38 45.21 17.81L45.21 19.8C45.21 20.24 45.56 20.59 46 20.59C46.43 20.59 46.78 20.24 46.78 19.8L46.78 17.81C46.78 17.38 46.43 17.03 46 17.03Z" />
	<path class="shp1" d="M44.75 17.41C50.17 17.41 54.56 21.79 54.56 27.2C54.56 32.61 50.17 37 44.75 37C39.33 37 34.94 32.61 34.94 27.2C34.94 21.79 39.33 17.41 44.75 17.41Z" />
</svg>