<svg xmlns="http://www.w3.org/2000/svg" viewBox="0 0 54 53" width="54" height="53">
	<style>
		tspan { white-space:pre }
		.shp0 { fill: #a3bbc8 } 
		.shp1 { opacity: 0.341;fill: #a3bbc8 } 
	</style>
	<path class="shp0" d="M46.43 31.32C45.96 31.32 45.59 31.69 45.59 32.15L45.59 40.42C45.59 41.61 44.62 42.58 43.43 42.58L4.09 42.58C2.9 42.58 1.93 41.61 1.93 40.42L1.93 28.5L29.22 28.5C29.68 28.5 30.06 28.12 30.06 27.66C30.06 27.2 29.68 26.82 29.22 26.82L1.93 26.82L1.93 21.35L11.8 21.35C12.26 21.35 12.63 20.98 12.63 20.52C12.63 20.06 12.26 19.68 11.8 19.68L1.93 19.68L1.93 16.8C1.93 15.6 2.9 14.63 4.09 14.63L29.22 14.63C29.68 14.63 30.06 14.26 30.06 13.79C30.06 13.33 29.68 12.96 29.22 12.96L4.09 12.96C1.98 12.96 0.26 14.68 0.26 16.8L0.26 40.42C0.26 42.53 1.98 44.25 4.09 44.25L43.43 44.25C45.54 44.25 47.26 42.53 47.26 40.42L47.26 32.15C47.26 31.69 46.89 31.32 46.43 31.32ZM29.22 19.68L15 19.68C14.54 19.68 14.17 20.06 14.17 20.52C14.17 20.98 14.54 21.35 15 21.35L29.22 21.35C29.68 21.35 30.06 20.98 30.06 20.52C30.06 20.06 29.68 19.68 29.22 19.68ZM19.98 31.24L5.71 31.24C5.25 31.24 4.88 31.61 4.88 32.07C4.88 32.54 5.25 32.91 5.71 32.91L19.98 32.91C20.44 32.91 20.82 32.54 20.82 32.07C20.82 31.61 20.44 31.24 19.98 31.24ZM13.9 35.23L5.71 35.23C5.25 35.23 4.88 35.6 4.88 36.06C4.88 36.53 5.25 36.9 5.71 36.9L13.9 36.9C14.36 36.9 14.73 36.53 14.73 36.06C14.73 35.6 14.36 35.23 13.9 35.23ZM48.53 21.62C49 21.62 49.37 21.25 49.37 20.78L49.37 16.01C49.37 14.55 48.34 13.33 46.98 13.04L46.98 7.02C46.98 3.38 44.02 0.42 40.38 0.42C36.74 0.42 33.79 3.38 33.79 7.02L33.79 13.04C32.42 13.34 31.39 14.56 31.39 16.01L31.39 26.76C31.39 28.44 32.76 29.8 34.43 29.8L46.33 29.8C48.01 29.8 49.37 28.44 49.37 26.76L49.37 23.57C49.37 23.11 49 22.74 48.53 22.74C48.07 22.74 47.7 23.11 47.7 23.57L47.7 26.76C47.7 27.51 47.08 28.13 46.33 28.13L34.43 28.13C33.68 28.13 33.06 27.51 33.06 26.76L33.06 16.01C33.06 15.26 33.68 14.64 34.43 14.64L46.33 14.64C47.08 14.64 47.7 15.26 47.7 16.01L47.7 20.78C47.7 21.25 48.07 21.62 48.53 21.62ZM45.3 12.97L35.46 12.97L35.46 7.02C35.46 4.3 37.67 2.09 40.38 2.09C43.1 2.09 45.3 4.3 45.3 7.02L45.3 12.97L45.3 12.97ZM40.38 17.29C38.68 17.29 37.29 18.68 37.29 20.38C37.29 21.8 38.25 23 39.55 23.36L39.55 25.4C39.55 25.87 39.92 26.24 40.38 26.24C40.84 26.24 41.22 25.87 41.22 25.4L41.22 23.36C42.52 23 43.47 21.8 43.47 20.38C43.47 18.68 42.09 17.29 40.38 17.29ZM40.38 21.81C39.6 21.81 38.96 21.17 38.96 20.38C38.96 19.6 39.6 18.96 40.38 18.96C41.16 18.96 41.8 19.6 41.8 20.38C41.8 21.17 41.16 21.81 40.38 21.81Z" />
	<path class="shp1" d="M44 33.06C49.42 33.06 53.81 37.45 53.81 42.86C53.81 48.27 49.42 52.66 44 52.66C38.58 52.66 34.19 48.27 34.19 42.86C34.19 37.45 38.58 33.06 44 33.06Z" />
</svg>