<svg xmlns="http://www.w3.org/2000/svg" viewBox="0 0 51 54" width="51" height="54">
	<style>
		tspan { white-space:pre }
		.shp0 { opacity: 0.341;fill: #a3bbc8 } 
		.shp1 { fill: #a3bbc8 } 
	</style>
	<path class="shp0" d="M40.98 33.59C46.39 33.59 50.78 37.99 50.78 43.41C50.78 48.83 46.39 53.22 40.98 53.22C35.57 53.22 31.19 48.83 31.19 43.41C31.19 37.99 35.57 33.59 40.98 33.59Z" />
	<path class="shp1" d="M45.31 11.67C45.04 11.23 44.46 11.1 44.02 11.37C43.58 11.64 43.45 12.22 43.72 12.66C45.96 16.25 47.14 20.4 47.14 24.65C47.14 37.16 36.97 47.33 24.46 47.33C19.51 47.33 14.81 45.76 10.86 42.8C10.45 42.49 9.86 42.57 9.55 42.99C9.24 43.4 9.32 43.99 9.74 44.3C14.01 47.51 19.1 49.21 24.46 49.21C38 49.21 49.02 38.19 49.02 24.65C49.02 20.05 47.74 15.56 45.31 11.67ZM22.28 33.61L14.73 33.61L19.47 28.86C21.89 26.45 23.22 23.24 23.22 19.83C23.22 16.6 20.6 13.98 17.37 13.98C14.15 13.98 11.53 16.6 11.53 19.83C11.53 20.34 11.95 20.76 12.47 20.76C12.99 20.76 13.41 20.34 13.41 19.83C13.41 17.64 15.19 15.86 17.37 15.86C19.56 15.86 21.34 17.64 21.34 19.83C21.34 22.74 20.21 25.48 18.15 27.54L11.81 33.88C11.54 34.15 11.46 34.55 11.6 34.91C11.75 35.26 12.09 35.48 12.47 35.48L22.28 35.48C22.8 35.48 23.22 35.06 23.22 34.55C23.22 34.03 22.8 33.61 22.28 33.61ZM37.32 27.17L34.72 27.17L34.72 25.65C34.72 25.14 34.3 24.72 33.78 24.72C33.26 24.72 32.84 25.14 32.84 25.65L32.84 27.17L27.56 27.17L32.84 18.32L32.84 22.53C32.84 23.05 33.26 23.47 33.78 23.47C34.3 23.47 34.72 23.05 34.72 22.53L34.72 14.92C34.72 14.92 34.72 14.91 34.72 14.91C34.72 14.6 34.55 14.29 34.26 14.11C33.82 13.85 33.24 13.99 32.98 14.44L25.1 27.63C24.93 27.92 24.92 28.28 25.09 28.57C25.26 28.86 25.57 29.05 25.91 29.05L32.84 29.05L32.84 34.55C32.84 35.06 33.26 35.48 33.78 35.48C34.3 35.48 34.72 35.06 34.72 34.55L34.72 29.05L37.32 29.05C37.84 29.05 38.26 28.63 38.26 28.11C38.26 27.59 37.84 27.17 37.32 27.17ZM42.65 4.54C42.64 4.02 42.21 3.61 41.69 3.62C41.17 3.64 40.76 4.06 40.78 4.58L40.82 6.33C38.93 4.64 36.8 3.26 34.47 2.22C31.32 0.81 27.95 0.09 24.46 0.09C10.92 0.09 -0.09 11.11 -0.09 24.65C-0.09 31.3 2.52 37.52 7.27 42.18C7.45 42.36 7.69 42.45 7.92 42.45C8.17 42.45 8.41 42.36 8.59 42.17C8.96 41.8 8.95 41.21 8.58 40.84C4.2 36.54 1.78 30.79 1.78 24.65C1.78 12.14 11.96 1.97 24.46 1.97C30.04 1.97 35.43 4.05 39.57 7.74L37.73 7.78C37.21 7.79 36.8 8.22 36.81 8.74C36.82 9.25 37.24 9.65 37.75 9.65C37.76 9.65 37.76 9.65 37.77 9.65L41.83 9.56C42.35 9.55 42.76 9.12 42.75 8.6L42.65 4.54Z" />
</svg>