<svg xmlns="http://www.w3.org/2000/svg" viewBox="0 0 20 18" width="20" height="18">
	<style>
		tspan { white-space:pre }
		.shp0 { fill: #243f4d } 
	</style>
	<path fill-rule="evenodd" class="shp0" d="M6.53 17.98C5.99 17.98 5.46 17.77 5.06 17.37C4.47 16.78 4.29 15.89 4.61 15.11C4.93 14.33 5.69 13.83 6.53 13.83C6.53 13.83 6.53 13.83 6.53 13.83C7.08 13.83 7.6 14.04 7.99 14.43C8.39 14.83 8.6 15.35 8.6 15.9C8.6 16.74 8.1 17.49 7.33 17.82C7.07 17.93 6.8 17.98 6.53 17.98ZM6.53 15.01C6.53 15.01 6.53 15.01 6.53 15.01C6.17 15.01 5.85 15.23 5.71 15.56C5.57 15.9 5.65 16.28 5.9 16.53C6.16 16.79 6.54 16.86 6.87 16.72C7.2 16.58 7.42 16.26 7.42 15.9C7.42 15.66 7.32 15.44 7.16 15.27C6.99 15.11 6.77 15.01 6.53 15.01ZM14.92 17.98C14.38 17.98 13.85 17.77 13.46 17.37C12.86 16.78 12.68 15.89 13 15.11C13.33 14.33 14.08 13.83 14.92 13.83C15.46 13.79 16 14.05 16.39 14.43C16.78 14.83 16.99 15.35 16.99 15.9C17 16.74 16.5 17.49 15.72 17.82C15.46 17.93 15.19 17.98 14.92 17.98ZM14.92 15.01C14.92 15.01 14.92 15.01 14.92 15.01C14.59 15.05 14.24 15.23 14.1 15.56C13.96 15.9 14.04 16.28 14.29 16.53C14.55 16.79 14.93 16.86 15.26 16.72C15.6 16.58 15.81 16.26 15.81 15.9C15.81 15.66 15.72 15.44 15.55 15.27C15.38 15.11 15.16 15.01 14.92 15.01ZM3.65 15.18C3.56 15.18 3.48 15.16 3.4 15.12C3.1 14.98 2.97 14.63 3.11 14.34C3.69 13.1 4.74 12.36 6.16 12.18L5.11 6.79C5.05 6.47 5.25 6.16 5.58 6.1C5.9 6.03 6.21 6.25 6.27 6.57L7.36 12.14L16.79 12.14L18.59 5.37C18.58 5.37 5.3 5.37 5.29 5.37C3.16 5.37 1.32 3.79 1.01 1.68C0.96 1.36 1.18 1.05 1.5 1.01C1.82 0.95 2.13 1.18 2.18 1.51C2.41 3.04 3.74 4.19 5.29 4.19C5.3 4.19 5.31 4.19 5.31 4.19L19.36 4.19C19.55 4.19 19.72 4.27 19.83 4.42C19.95 4.57 19.98 4.76 19.94 4.93L17.81 12.89C17.74 13.15 17.51 13.33 17.24 13.33L6.88 13.33C6.88 13.33 6.87 13.33 6.86 13.33C5.53 13.33 4.66 13.82 4.18 14.84C4.08 15.05 3.87 15.18 3.65 15.18Z" />
	<path class="shp0" d="M-66.09 18.24C-66.18 18.24 -66.28 18.23 -66.37 18.19C-66.72 18.04 -75.02 14.44 -75.02 7.43C-74.93 4.78 -72.81 2.72 -70.2 2.72C-68.46 2.72 -66.93 3.64 -66.09 5.03C-65.24 3.64 -63.72 2.72 -61.97 2.72C-59.37 2.72 -57.25 4.78 -57.16 7.4C-57.16 14.44 -65.45 18.04 -65.81 18.19C-65.9 18.23 -65.99 18.24 -66.09 18.24ZM-70.2 4.11C-72.05 4.11 -73.54 5.58 -73.61 7.45C-73.61 12.86 -67.48 16.11 -66.09 16.79C-64.69 16.11 -58.57 12.86 -58.57 7.43C-58.63 5.58 -60.13 4.11 -61.97 4.11C-63.82 4.11 -65.32 5.58 -65.38 7.45C-65.4 7.83 -65.71 8.12 -66.09 8.12L-66.09 8.12C-66.47 8.12 -66.78 7.83 -66.79 7.45C-66.86 5.58 -68.35 4.11 -70.2 4.11Z" />
</svg>