<svg xmlns="http://www.w3.org/2000/svg" viewBox="0 0 19 17" width="19" height="17">
	<style>
		tspan { white-space:pre }
		.shp0 { fill: #243f4d } 
	</style>
	<path fill-rule="evenodd" class="shp0" d="M82.53 15.98C81.99 15.98 81.46 15.77 81.06 15.37C80.47 14.78 80.29 13.89 80.61 13.11C80.93 12.33 81.69 11.83 82.53 11.83C82.53 11.83 82.53 11.83 82.53 11.83C83.08 11.83 83.6 12.04 83.99 12.43C84.39 12.83 84.6 13.35 84.6 13.9C84.6 14.74 84.1 15.49 83.33 15.82C83.07 15.93 82.8 15.98 82.53 15.98ZM82.53 13.01C82.53 13.01 82.53 13.01 82.53 13.01C82.17 13.01 81.85 13.23 81.71 13.56C81.57 13.9 81.65 14.28 81.9 14.53C82.16 14.79 82.54 14.86 82.87 14.72C83.2 14.58 83.42 14.26 83.42 13.9C83.42 13.66 83.32 13.44 83.16 13.27C82.99 13.11 82.77 13.01 82.53 13.01ZM90.92 15.98C90.38 15.98 89.85 15.77 89.46 15.37C88.86 14.78 88.68 13.89 89 13.11C89.33 12.33 90.08 11.83 90.92 11.83C91.46 11.79 92 12.05 92.39 12.43C92.78 12.83 92.99 13.35 92.99 13.9C93 14.74 92.5 15.49 91.72 15.82C91.46 15.93 91.19 15.98 90.92 15.98ZM90.92 13.01C90.92 13.01 90.92 13.01 90.92 13.01C90.59 13.05 90.24 13.23 90.1 13.56C89.96 13.9 90.04 14.28 90.29 14.53C90.55 14.79 90.93 14.86 91.26 14.72C91.6 14.58 91.81 14.26 91.81 13.9C91.81 13.66 91.72 13.44 91.55 13.27C91.38 13.11 91.16 13.01 90.92 13.01ZM79.65 13.18C79.56 13.18 79.48 13.16 79.4 13.12C79.1 12.98 78.97 12.63 79.11 12.34C79.69 11.1 80.74 10.36 82.16 10.18L81.11 4.79C81.05 4.47 81.25 4.16 81.58 4.1C81.9 4.03 82.21 4.25 82.27 4.57L83.36 10.14L92.79 10.14L94.59 3.37C94.58 3.37 81.3 3.37 81.29 3.37C79.16 3.37 77.32 1.79 77.01 -0.32C76.96 -0.64 77.18 -0.95 77.5 -0.99C77.82 -1.05 78.13 -0.82 78.18 -0.49C78.41 1.04 79.74 2.19 81.29 2.19C81.3 2.19 81.31 2.19 81.31 2.19L95.36 2.19C95.55 2.19 95.72 2.27 95.83 2.42C95.95 2.57 95.98 2.76 95.94 2.93L93.81 10.89C93.74 11.15 93.51 11.33 93.24 11.33L82.88 11.33C82.88 11.33 82.87 11.33 82.86 11.33C81.53 11.33 80.66 11.82 80.18 12.84C80.08 13.05 79.87 13.18 79.65 13.18Z" />
	<path class="shp0" d="M9.91 16.24C9.82 16.24 9.72 16.23 9.63 16.19C9.28 16.04 0.98 12.44 0.98 5.43C1.07 2.78 3.19 0.72 5.8 0.72C7.54 0.72 9.07 1.64 9.91 3.03C10.76 1.64 12.28 0.72 14.03 0.72C16.63 0.72 18.75 2.78 18.84 5.4C18.84 12.44 10.55 16.04 10.19 16.19C10.1 16.23 10.01 16.24 9.91 16.24ZM5.8 2.11C3.95 2.11 2.46 3.58 2.39 5.45C2.39 10.86 8.52 14.11 9.91 14.79C11.31 14.11 17.43 10.86 17.43 5.43C17.37 3.58 15.87 2.11 14.03 2.11C12.18 2.11 10.68 3.58 10.62 5.45C10.6 5.83 10.29 6.12 9.91 6.12L9.91 6.12C9.53 6.12 9.22 5.83 9.21 5.45C9.14 3.58 7.65 2.11 5.8 2.11Z" />
</svg>